<svg width="122" height="14" fill="none" xmlns="http://www.w3.org/2000/svg"><path d="M.92.85h2.685V13H.92V.85zm13.316 1.995h-1.83V.85h6.345v1.995h-1.815V13h-2.7V2.845zM42.334 13.18c-1.16 0-2.025-.305-2.595-.915-.56-.62-.86-1.6-.9-2.94l2.295-.345c.01.77.1 1.325.27 1.665.18.33.445.495.795.495.45 0 .675-.295.675-.885 0-.47-.11-.875-.33-1.215-.21-.34-.545-.705-1.005-1.095l-1.05-.915c-.52-.44-.925-.905-1.215-1.395-.28-.5-.42-1.09-.42-1.77 0-1.02.3-1.805.9-2.355.61-.55 1.445-.825 2.505-.825 1.15 0 1.93.335 2.34 1.005.42.67.645 1.485.675 2.445l-2.31.285c-.02-.63-.08-1.08-.18-1.35-.09-.28-.295-.42-.615-.42-.23 0-.41.1-.54.3-.12.19-.18.405-.18.645 0 .41.09.755.27 1.035.19.28.49.6.9.96l1.005.885c.6.51 1.065 1.05 1.395 1.62.33.57.495 1.245.495 2.025 0 .57-.135 1.09-.405 1.56-.26.46-.63.825-1.11 1.095-.48.27-1.035.405-1.665.405zM54.584.85h2.685v4.92h1.875V.85h2.7V13h-2.7V7.69H57.27V13h-2.685V.85zm33.917 1.995h-1.83V.85h6.345v1.995h-1.815V13h-2.7V2.845zM101.811.85h2.685v10.335h2.79V13h-5.475V.85zm14.375 0h5.46v1.83h-2.775v3.015h2.115v1.86h-2.115v3.63h2.805V13h-5.49V.85z" fill="#31456A"/><path d="M73.13.85h3.06L78.453 13H75.98l-.405-2.565H73.79L73.37 13h-2.535L73.13.85zm2.19 7.98l-.646-4.74-.645 4.74h1.29z" fill="#FFC905"/></svg>